# Blender 4.0.1
# www.blender.org
mtllib tobacco.mtl
o Plane
v -0.030202 0.240255 -1.068010
v 0.041431 -0.376928 -0.064572
v -0.041431 -0.376927 -0.064572
v 0.041431 -0.155801 -0.079584
v -0.041431 -0.155801 -0.079584
v -0.233594 0.072866 -0.116605
v 0.244618 0.087174 -0.123778
v -0.144847 0.350326 -0.619252
v 0.161030 0.371330 -0.629782
v 0.212640 0.267017 -0.315673
v -0.192215 0.240508 -0.302382
v -0.078479 0.307808 -0.925976
v 0.079784 0.309501 -0.926825
v -0.734942 0.070698 0.772753
v -0.076251 -0.389814 -0.054747
v -0.013167 -0.388647 -0.001033
v -0.087342 -0.210198 -0.045622
v -0.024258 -0.209032 0.008092
v 0.100200 0.002562 0.170776
v -0.254999 -0.024026 -0.139603
v -0.293162 0.223331 0.499010
v -0.522982 0.201260 0.296259
v -0.346765 0.101506 0.029144
v -0.049579 0.137833 0.294411
v -0.547222 0.173432 0.673136
v -0.668703 0.171186 0.569699
v 0.485528 -0.069990 0.532926
v -0.017977 -0.371650 0.050795
v 0.021142 -0.371220 0.012761
v -0.011986 -0.253390 0.058292
v 0.027132 -0.252960 0.020258
v 0.142295 -0.114511 -0.051665
v -0.088668 -0.117048 0.172897
v 0.333992 0.030529 0.226094
v 0.181951 0.028859 0.373921
v 0.013833 -0.027766 0.249122
v 0.214603 -0.025561 0.053917
v 0.432233 -0.002399 0.403509
v 0.356902 -0.003226 0.476752
v 0.823412 0.105994 -0.236529
v -0.017167 -0.390312 -0.053166
v -0.031922 -0.385272 -0.120014
v -0.008533 -0.207299 -0.041272
v -0.023289 -0.202259 -0.108121
v -0.025099 0.018425 -0.259776
v 0.059320 -0.006317 0.131743
v 0.392090 0.256514 -0.266952
v 0.449440 0.236924 -0.007133
v 0.206210 0.138365 0.083026
v 0.130479 0.164234 -0.260065
v 0.647810 0.209314 -0.257845
v 0.676225 0.199608 -0.129115
v -0.768914 0.024105 -0.459804
v -0.021276 -0.376928 -0.084791
v -0.063002 -0.376927 -0.013200
v -0.034246 -0.155801 -0.092350
v -0.075971 -0.155801 -0.020760
v -0.216469 0.087174 0.132533
v 0.029887 0.087174 -0.290151
v -0.532170 0.238005 -0.142834
v -0.369997 0.238004 -0.421082
v -0.139064 0.206596 -0.350729
v -0.353213 0.206596 0.016697
v -0.667715 0.183718 -0.310433
v -0.587364 0.183718 -0.448294
vn 0.0049 0.1279 0.9918
vn 0.0049 0.1280 0.9918
vn -0.0000 0.0677 0.9977
vn -0.0091 0.5570 0.8305
vn -0.0082 0.5380 0.8429
vn -0.0353 0.8540 0.5191
vn -0.0338 0.8448 0.5341
vn -0.0387 0.9643 -0.2620
vn -0.0358 0.9589 -0.2813
vn -0.0540 0.9921 0.1136
vn -0.0540 0.9928 0.1073
vn -0.0120 0.9014 -0.4328
vn 0.6410 0.1502 -0.7527
vn 0.6410 0.1501 -0.7527
vn 0.6455 0.0785 -0.7598
vn 0.4802 0.6263 -0.6141
vn 0.4646 0.6521 -0.5991
vn 0.2438 0.8923 -0.3799
vn 0.2370 0.8970 -0.3732
vn -0.2018 0.9628 0.1797
vn -0.2006 0.9634 0.1778
vn 0.0172 0.9924 -0.1220
vn 0.0169 0.9924 -0.1215
vn -0.3061 0.8892 0.3402
vn -0.6896 0.1549 -0.7075
vn -0.6953 0.0805 -0.7142
vn -0.5412 0.6366 -0.5494
vn -0.3128 0.8972 -0.3116
vn 0.1936 0.9583 0.2100
vn -0.0621 0.9967 -0.0526
vn 0.3151 0.8883 0.3342
vn -0.9712 0.0956 0.2182
vn -0.9755 0.0319 0.2177
vn -0.8218 0.5278 0.2147
vn -0.8234 0.5252 0.2148
vn -0.5201 0.8362 0.1742
vn -0.5191 0.8368 0.1741
vn 0.3189 0.9478 0.0011
vn -0.1113 0.9888 0.0991
vn 0.5109 0.8583 -0.0480
vn 0.8562 0.1335 0.4990
vn 0.8620 0.0677 0.5024
vn 0.6742 0.6253 0.3930
vn 0.6737 0.6261 0.3927
vn 0.3311 0.9237 0.1930
vn 0.3286 0.9249 0.1915
vn -0.3830 0.8964 -0.2232
vn -0.3860 0.8947 -0.2250
vn -0.0244 0.9996 -0.0142
vn -0.0202 0.9997 -0.0118
vn -0.6051 0.7137 -0.3527
vt 0.650424 0.000000
vt 0.650425 1.000000
vt 1.000000 1.000000
vt 1.000000 0.000000
vt 0.507391 0.000000
vt 0.507391 1.000000
vt 0.373636 0.000000
vt 0.373636 1.000000
vt 0.137441 0.000000
vt 0.137441 1.000000
vt 0.274882 1.000000
vt 0.274882 0.000000
vt 0.000000 0.000000
s 1
usemtl plant
f 4/1/1 5/2/2 3/3/3 2/4/3
f 7/5/4 6/6/5 5/2/2 4/1/1
f 10/7/6 11/8/7 6/6/5 7/5/4
f 13/9/8 12/10/9 8/11/10 9/12/11
f 9/12/11 8/11/10 11/8/7 10/7/6
f 1/13/12 12/10/9 13/9/8
f 17/1/13 18/2/14 16/3/15 15/4/15
f 20/5/16 19/6/17 18/2/14 17/1/13
f 23/7/18 24/8/19 19/6/17 20/5/16
f 26/9/20 25/10/21 21/11/22 22/12/23
f 22/12/23 21/11/22 24/8/19 23/7/18
f 14/13/24 25/10/21 26/9/20
f 30/1/25 31/2/25 29/3/26 28/4/26
f 33/5/27 32/6/27 31/2/25 30/1/25
f 36/7/28 37/8/28 32/6/27 33/5/27
f 39/9/29 38/10/29 34/11/30 35/12/30
f 35/12/30 34/11/30 37/8/28 36/7/28
f 27/13/31 38/10/29 39/9/29
f 43/1/32 44/2/32 42/3/33 41/4/33
f 46/5/34 45/6/35 44/2/32 43/1/32
f 49/7/36 50/8/37 45/6/35 46/5/34
f 52/9/38 51/10/38 47/11/39 48/12/39
f 48/12/39 47/11/39 50/8/37 49/7/36
f 40/13/40 51/10/38 52/9/38
f 56/1/41 57/2/41 55/3/42 54/4/42
f 59/5/43 58/6/44 57/2/41 56/1/41
f 62/7/45 63/8/46 58/6/44 59/5/43
f 65/9/47 64/10/48 60/11/49 61/12/50
f 61/12/50 60/11/49 63/8/46 62/7/45
f 53/13/51 64/10/48 65/9/47
